<?xml version="1.0" encoding="UTF-8" standalone="no"?>
<svg width="158px" height="100px" viewBox="0 0 158 100" version="1.1" xmlns="http://www.w3.org/2000/svg" xmlns:xlink="http://www.w3.org/1999/xlink" xmlns:sketch="http://www.bohemiancoding.com/sketch/ns">
    <!-- Generator: Sketch 3.3.3 (12081) - http://www.bohemiancoding.com/sketch -->
    <title>Imported Layers</title>
    <desc>Created with Sketch.</desc>
    <defs></defs>
    <g id="atoms" stroke="none" stroke-width="1" fill="none" fill-rule="evenodd" sketch:type="MSPage">
        <g id="icons-and-graphics" sketch:type="MSArtboardGroup" transform="translate(-497.000000, -1078.000000)" fill="#000000">
            <g id="Imported-Layers" sketch:type="MSLayerGroup" transform="translate(497.877266, 1078.000000)">
                <path d="M127.379154,80.3456193 L114.987311,80.3456193 C112.431118,80.3456193 110.351662,82.4250755 110.351662,84.9809668 L110.351662,89.6637462 C110.351662,92.2199396 112.431118,94.2993958 114.987311,94.2993958 L127.379154,94.2993958 C129.935347,94.2993958 132.015106,92.2199396 132.015106,89.6637462 L132.015106,84.9809668 C132.015106,82.4250755 129.935347,80.3456193 127.379154,80.3456193 L127.379154,80.3456193 Z M127.808157,89.6637462 C127.808157,89.8960725 127.611782,90.0924471 127.379154,90.0924471 L114.987311,90.0924471 C114.754985,90.0924471 114.55861,89.8960725 114.55861,89.6637462 L114.55861,84.9809668 C114.55861,84.7489426 114.754985,84.552568 114.987311,84.552568 L127.379154,84.552568 C127.611782,84.552568 127.808157,84.7489426 127.808157,84.9809668 L127.808157,89.6637462 L127.808157,89.6637462 Z" id="Fill-1" sketch:type="MSShapeGroup"></path>
                <path d="M106.683384,84.6700906 C106.587311,84.5132931 106.429909,84.5132931 106.333535,84.6700906 L104.883082,87.0371601 C104.787009,87.1942598 104.787009,87.4507553 104.883082,87.607855 L106.333837,89.9749245 C106.429909,90.1317221 106.587311,90.1317221 106.683384,89.9749245 L108.134139,87.607855 C108.230211,87.4507553 108.230211,87.1942598 108.134139,87.0371601 L106.683384,84.6700906" id="Fill-2" sketch:type="MSShapeGroup"></path>
                <path d="M151.578852,80.3456193 L134.55136,80.3456193 L134.55136,99.8861027 L138.758308,99.8861027 L138.758308,94.2993958 L151.578852,94.2993958 C154.135045,94.2993958 156.214804,92.2199396 156.214804,89.6637462 L156.214804,84.9809668 C156.214804,82.4250755 154.135045,80.3456193 151.578852,80.3456193 L151.578852,80.3456193 Z M152.007855,89.6637462 C152.007855,89.8960725 151.81148,90.0924471 151.578852,90.0924471 L138.758308,90.0924471 L138.758308,84.552568 L151.578852,84.552568 C151.81148,84.552568 152.007855,84.7489426 152.007855,84.9809668 L152.007855,89.6637462 L152.007855,89.6637462 Z" id="Fill-3" sketch:type="MSShapeGroup"></path>
                <path d="M141.496375,76.092145 L153.281571,76.092145 C154.901511,76.092145 156.214804,74.778852 156.214804,73.1589124 L156.214804,37.6963746 L141.496375,37.6963746 L141.496375,76.092145" id="Fill-4" sketch:type="MSShapeGroup"></path>
                <path d="M58.5679758,84.9809668 L58.5679758,89.6637462 C58.5679758,92.2199396 60.6477341,94.2993958 63.2039275,94.2993958 L78.4655589,94.2993958 L78.4655589,90.0924471 L63.2039275,90.0924471 C62.9712991,90.0924471 62.7749245,89.8960725 62.7749245,89.6637462 L62.7749245,84.9809668 C62.7749245,84.7489426 62.9712991,84.552568 63.2039275,84.552568 L78.4655589,84.552568 L78.4655589,80.3456193 L63.2039275,80.3456193 C60.6477341,80.3456193 58.5679758,82.4250755 58.5679758,84.9809668" id="Fill-5" sketch:type="MSShapeGroup"></path>
                <path d="M107.525378,76.092145 L135.506344,76.092145 L135.506344,67.8546828 L119.238066,67.8546828 L119.238066,61.0129909 L135.506344,61.0129909 L135.506344,52.7755287 L119.238066,52.7755287 L119.238066,45.9338369 L135.506344,45.9338369 L135.506344,37.6963746 L104.519637,37.6963746 L104.519637,73.0864048 C104.519637,74.7462236 105.865559,76.092145 107.525378,76.092145" id="Fill-6" sketch:type="MSShapeGroup"></path>
                <path d="M58.5679758,49.6897281 L58.5679758,76.1132931 L73.2900302,76.1132931 L73.2900302,66.0564955 L77.8670695,66.0564955 L84.7042296,76.1132931 L101.222054,76.1132931 L92.7277946,63.6190332 L98.5277946,57.8190332 L98.5277946,37.7178248 L83.8093656,37.7178248 L73.2969789,43.0670695 L73.2969789,39.2459215 C73.2969789,38.4021148 72.6126888,37.7178248 71.7685801,37.7178248 L67.5803625,37.7178248 L90.7045317,6.99969789 L118.044109,31.5253776 L132.134743,16.1643505 L150.127492,31.5187311 L156.214804,31.5187311 L131.944713,10.3329305 L116.16435,23.6196375 L92.5132931,2.97069486 L92.4951662,2.99063444 L89.4190332,0.221752266 L40.2839879,49.4459215 L34.6045317,37.6963746 L39.1039275,37.6963746 L24.5755287,10.2749245 L10.3785498,37.6963746 L14.8779456,37.6963746 L5.3081571,56.9154079 L11.3410876,56.9205438 L0.029305136,80.3456193 L53.2963746,94.2993958 L42.8302115,70.5957704 L58.5679758,49.6897281 L58.5679758,49.6897281 Z M73.2969789,51.3646526 L83.8093656,46.0154079 L83.8093656,56.9154079 L73.2900302,56.9154079 L73.2969789,51.3646526 L73.2969789,51.3646526 Z" id="Fill-7" sketch:type="MSShapeGroup"></path>
                <path d="M98.0296073,80.3456193 L85.6377644,80.3456193 C83.081571,80.3456193 81.0021148,82.4250755 81.0021148,84.9809668 L81.0021148,89.6637462 C81.0021148,92.2199396 83.081571,94.2993958 85.6377644,94.2993958 L98.0296073,94.2993958 C100.585801,94.2993958 102.665257,92.2199396 102.665257,89.6637462 L102.665257,84.9809668 C102.665257,82.4250755 100.585801,80.3456193 98.0296073,80.3456193 L98.0296073,80.3456193 Z M98.4583082,89.6637462 C98.4583082,89.8960725 98.2619335,90.0924471 98.0296073,90.0924471 L85.6377644,90.0924471 C85.405136,90.0924471 85.2090634,89.8960725 85.2090634,89.6637462 L85.2090634,84.9809668 C85.2090634,84.7489426 85.405136,84.552568 85.6377644,84.552568 L98.0296073,84.552568 C98.2619335,84.552568 98.4583082,84.7489426 98.4583082,84.9809668 L98.4583082,89.6637462 L98.4583082,89.6637462 Z" id="Fill-8" sketch:type="MSShapeGroup"></path>
            </g>
        </g>
    </g>
</svg>